<svg xmlns="http://www.w3.org/2000/svg" width="333.333" height="333.333" preserveAspectRatio="xMidYMid meet" version="1.0" viewBox="0 0 250 250"><metadata>Created by potrace 1.11, written by Peter Selinger 2001-2013</metadata><g fill="#000" stroke="none"><path d="M0 1250 l0 -1250 328 0 328 1 9 22 c13 28 29 28 33 -1 l3 -22 529 0 c493 0 528 1 535 18 6 16 8 16 21 -3 15 -19 15 -19 9 5 -4 20 1 31 27 55 25 23 30 26 24 10 -7 -19 -6 -19 10 -3 9 9 17 30 18 46 1 17 4 28 7 27 3 -2 13 9 23 26 9 16 23 29 31 29 9 0 12 6 8 16 -4 10 1 17 16 21 11 3 19 9 16 13 -2 4 5 16 16 26 18 16 19 16 13 1 -3 -9 -10 -17 -15 -17 -5 0 -8 -3 -7 -7 4 -12 -61 -113 -72 -113 -5 0 -10 -6 -10 -14 0 -7 -9 -25 -21 -40 -11 -14 -18 -26 -14 -26 3 0 -1 -10 -10 -22 -8 -13 -21 -23 -27 -23 -6 0 -13 -7 -15 -15 -4 -13 -3 -13 6 0 7 10 11 11 11 3 0 -9 17 -13 50 -13 28 0 50 5 50 10 0 6 9 10 20 10 11 0 20 5 20 11 0 5 4 8 9 5 5 -4 12 0 14 6 4 10 6 10 6 0 1 -7 -6 -15 -14 -18 -39 -15 -6 -24 88 -24 66 1 111 5 126 14 23 13 54 11 76 -4 6 -3 58 -8 118 -9 l107 -3 0 1251 0 1251 -1250 0 -1250 0 0 -1250z m1184 794 c9 -3 13 -10 10 -15 -3 -5 6 -9 20 -9 25 0 26 -3 26 -52 0 -29 -4 -60 -10 -68 -9 -15 -13 -14 -97 17 -9 4 -13 -5 -13 -25 0 -17 -4 -32 -10 -34 -5 -1 -17 -39 -26 -83 -17 -81 -39 -114 -76 -115 -9 0 -20 -9 -23 -20 -4 -13 -15 -20 -33 -20 -15 -1 -58 -2 -97 -3 -67 -3 -70 -2 -70 20 0 13 3 23 7 23 4 0 5 16 2 35 -2 19 -6 51 -9 71 -3 27 -1 35 9 31 15 -6 59 37 70 68 6 16 9 17 17 5 8 -12 9 -10 5 6 -5 15 0 24 19 34 14 7 25 19 25 26 0 20 100 64 147 64 39 0 45 4 42 26 -2 18 37 29 65 18z m31 -623 c3 -5 1 -12 -5 -16 -5 -3 -10 -1 -10 5 0 6 -5 8 -12 4 -7 -4 -8 -3 -4 4 9 14 23 15 31 3z m-425 -279 c-8 -4 -15 -14 -15 -22 0 -9 -9 -15 -25 -15 -55 0 -16 42 40 43 13 1 13 0 0 -6z m393 -323 c14 -15 13 -16 -14 -17 -29 -1 -45 11 -35 27 8 13 30 8 49 -10z m-441 -651 c-7 -7 -12 -8 -12 -2 0 14 12 26 19 19 2 -3 -1 -11 -7 -17z m-27 -68 c-20 -44 -41 -56 -25 -14 16 42 31 66 37 60 4 -3 -2 -24 -12 -46z m1147 18 c-7 -7 -12 -8 -12 -2 0 14 12 26 19 19 2 -3 -1 -11 -7 -17z" transform="translate(0.000000,250.000000) scale(0.100000,-0.100000)"/><path d="M800 1754 c0 -14 4 -23 10 -19 6 3 10 15 10 26 0 10 -4 19 -10 19 -5 0 -10 -12 -10 -26z" transform="translate(0.000000,250.000000) scale(0.100000,-0.100000)"/></g></svg>